<?xml version="1.0" encoding="UTF-8" standalone="no"?>
<!-- Created with Inkscape (http://www.inkscape.org/) -->

<svg
   xmlns:dc="http://purl.org/dc/elements/1.1/"
   xmlns:cc="http://creativecommons.org/ns#"
   xmlns:rdf="http://www.w3.org/1999/02/22-rdf-syntax-ns#"
   xmlns:svg="http://www.w3.org/2000/svg"
   xmlns="http://www.w3.org/2000/svg"
   xmlns:sodipodi="http://sodipodi.sourceforge.net/DTD/sodipodi-0.dtd"
   xmlns:inkscape="http://www.inkscape.org/namespaces/inkscape"
   width="1024"
   height="1024"
   id="svg2"
   version="1.1"
   inkscape:version="0.48.5 r10040"
   sodipodi:docname="independents_logo.svg">
  <defs
     id="defs4" />
  <sodipodi:namedview
     id="base"
     pagecolor="#ffffff"
     bordercolor="#666666"
     borderopacity="1.0"
     inkscape:pageopacity="0.0"
     inkscape:pageshadow="2"
     inkscape:zoom="0.35"
     inkscape:cx="-163.57143"
     inkscape:cy="514.28571"
     inkscape:document-units="px"
     inkscape:current-layer="layer1"
     showgrid="false"
     inkscape:window-width="1680"
     inkscape:window-height="1003"
     inkscape:window-x="0"
     inkscape:window-y="26"
     inkscape:window-maximized="1" />
  <metadata
     id="metadata7">
    <rdf:RDF>
      <cc:Work
         rdf:about="">
        <dc:format>image/svg+xml</dc:format>
        <dc:type
           rdf:resource="http://purl.org/dc/dcmitype/StillImage" />
        <dc:title></dc:title>
      </cc:Work>
    </rdf:RDF>
  </metadata>
  <g
     inkscape:label="Layer 1"
     inkscape:groupmode="layer"
     id="layer1"
     transform="translate(0,-28.36218)">
    <g
       id="g3790"
       transform="matrix(2.1741126,0,0,2.1741126,-15.998773,-1210.4074)">
      <path
         transform="translate(-11.428571,374.28571)"
         d="m 405.71428,426.64789 c 0,61.5403 -49.88827,111.42857 -111.42857,111.42857 -61.54031,0 -111.42858,-49.88827 -111.42858,-111.42857 0,-61.5403 49.88827,-111.42858 111.42858,-111.42858 61.5403,0 111.42857,49.88828 111.42857,111.42858 z"
         sodipodi:ry="111.42857"
         sodipodi:rx="111.42857"
         sodipodi:cy="426.64789"
         sodipodi:cx="294.28571"
         id="path2985"
         style="fill:#0000ff;fill-opacity:1;stroke:#000000;stroke-width:4;stroke-miterlimit:4;stroke-dasharray:none"
         sodipodi:type="arc" />
      <path
         transform="translate(637.14286,65.714281)"
         d="m -162.85715,736.64789 c 0,68.6411 -99.77654,124.28571 -222.85714,124.28571 -123.08061,0 -222.85715,-55.64461 -222.85715,-124.28571 0,-68.64111 99.77654,-124.28572 222.85715,-124.28572 123.0806,0 222.85714,55.64461 222.85714,124.28572 z"
         sodipodi:ry="124.28571"
         sodipodi:rx="222.85715"
         sodipodi:cy="736.64789"
         sodipodi:cx="-385.71429"
         id="path2987"
         style="fill:none;stroke:#333333;stroke-width:4;stroke-miterlimit:4;stroke-dasharray:none"
         sodipodi:type="arc" />
      <path
         transform="translate(-80,302.85714)"
         d="m 128.57143,499.50504 c 0,10.25671 -8.31471,18.57142 -18.57143,18.57142 -10.256717,0 -18.571428,-8.31471 -18.571428,-18.57142 0,-10.25672 8.314711,-18.57143 18.571428,-18.57143 10.25672,0 18.57143,8.31471 18.57143,18.57143 z"
         sodipodi:ry="18.571428"
         sodipodi:rx="18.571428"
         sodipodi:cy="499.50504"
         sodipodi:cx="110"
         id="path2989"
         style="fill:#ffff00;stroke:#333333;stroke-width:4;stroke-miterlimit:4;stroke-opacity:1;stroke-dasharray:none"
         sodipodi:type="arc" />
      <path
         sodipodi:type="arc"
         style="fill:none;stroke:#000000;stroke-width:4;stroke-miterlimit:4;stroke-dasharray:none"
         id="path2991"
         sodipodi:cx="-385.71429"
         sodipodi:cy="736.64789"
         sodipodi:rx="222.85715"
         sodipodi:ry="124.28571"
         d="m -162.85715,736.64789 c 0,68.6411 -99.77654,124.28571 -222.85714,124.28571 -123.08061,0 -222.85715,-55.64461 -222.85715,-124.28571 0,-68.64111 99.77654,-124.28572 222.85715,-124.28572 123.0806,0 222.85714,55.64461 222.85714,124.28572 z"
         transform="matrix(-0.45006082,0.89299791,-0.89299791,-0.45006082,765.6878,1481.2585)" />
      <path
         sodipodi:type="arc"
         style="fill:#ffff00;stroke:#333333;stroke-width:4;stroke-miterlimit:4;stroke-opacity:1;stroke-dasharray:none"
         id="path2993"
         sodipodi:cx="110"
         sodipodi:cy="499.50504"
         sodipodi:rx="18.571428"
         sodipodi:ry="18.571428"
         d="m 128.57143,499.50504 c 0,10.25671 -8.31471,18.57142 -18.57143,18.57142 -10.256717,0 -18.571428,-8.31471 -18.571428,-18.57142 0,-10.25672 8.314711,-18.57143 18.571428,-18.57143 10.25672,0 18.57143,8.31471 18.57143,18.57143 z"
         transform="translate(305.71429,142.85714)" />
      <text
         sodipodi:linespacing="125%"
         id="text2995"
         y="812.36218"
         x="217.55815"
         style="font-size:134.06181335px;font-style:italic;font-variant:normal;font-weight:bold;font-stretch:normal;text-align:start;line-height:125%;letter-spacing:0px;word-spacing:0px;writing-mode:lr-tb;text-anchor:start;fill:#ffffff;fill-opacity:1;stroke:#000000;font-family:Century Schoolbook L;-inkscape-font-specification:Century Schoolbook L Bold Italic"
         xml:space="preserve"><tspan
           y="812.36218"
           x="217.55815"
           id="tspan2997"
           sodipodi:role="line">I</tspan></text>
      <text
         xml:space="preserve"
         style="font-size:134.06181335px;font-style:italic;font-variant:normal;font-weight:bold;font-stretch:normal;text-align:start;line-height:125%;letter-spacing:0px;word-spacing:0px;writing-mode:lr-tb;text-anchor:start;fill:#ffffff;fill-opacity:1;stroke:#000000;font-family:Century Schoolbook L;-inkscape-font-specification:Century Schoolbook L Bold Italic"
         x="271.8439"
         y="883.79077"
         id="text3786"
         sodipodi:linespacing="125%"><tspan
           sodipodi:role="line"
           id="tspan3788"
           x="271.8439"
           y="883.79077">S</tspan></text>
    </g>
  </g>
</svg>
