<?xml version="1.0" encoding="UTF-8" standalone="no"?>
<!-- Created with Inkscape (http://www.inkscape.org/) -->

<svg
   xmlns:dc="http://purl.org/dc/elements/1.1/"
   xmlns:cc="http://creativecommons.org/ns#"
   xmlns:rdf="http://www.w3.org/1999/02/22-rdf-syntax-ns#"
   xmlns:svg="http://www.w3.org/2000/svg"
   xmlns="http://www.w3.org/2000/svg"
   xmlns:sodipodi="http://sodipodi.sourceforge.net/DTD/sodipodi-0.dtd"
   xmlns:inkscape="http://www.inkscape.org/namespaces/inkscape"
   width="640"
   height="480"
   id="svg2"
   version="1.1"
   inkscape:version="0.48.5 r10040"
   sodipodi:docname="sensors.svg"
   inkscape:export-filename="/home/aebates/code/rpispacepirates/assets/textures/sensors.png"
   inkscape:export-xdpi="90"
   inkscape:export-ydpi="90">
  <defs
     id="defs4" />
  <sodipodi:namedview
     id="base"
     pagecolor="#ffffff"
     bordercolor="#666666"
     borderopacity="1.0"
     inkscape:pageopacity="0.0"
     inkscape:pageshadow="2"
     inkscape:zoom="0.91757597"
     inkscape:cx="461.47989"
     inkscape:cy="235.14925"
     inkscape:document-units="px"
     inkscape:current-layer="layer1"
     showgrid="false"
     inkscape:window-width="1024"
     inkscape:window-height="722"
     inkscape:window-x="0"
     inkscape:window-y="24"
     inkscape:window-maximized="1" />
  <metadata
     id="metadata7">
    <rdf:RDF>
      <cc:Work
         rdf:about="">
        <dc:format>image/svg+xml</dc:format>
        <dc:type
           rdf:resource="http://purl.org/dc/dcmitype/StillImage" />
        <dc:title></dc:title>
      </cc:Work>
    </rdf:RDF>
  </metadata>
  <g
     inkscape:label="Layer 1"
     inkscape:groupmode="layer"
     id="layer1"
     transform="translate(0,-572.36218)">
    <rect
       style="fill:#000000;fill-rule:evenodd;stroke:#000000;stroke-width:0.74527699px;stroke-linecap:butt;stroke-linejoin:miter;stroke-opacity:1"
       id="rect2985"
       width="639.2547"
       height="479.25473"
       x="0.37263849"
       y="572.7348" />
    <path
       d="m 1.005e-5,572.36218 0,480.00002 M 24.60001,572.36218 l 0,480.00002 m 24.600001,-480.00002 0,480.00002 m 24.6,-480.00002 0,480.00002 m 24.599999,-480.00002 0,480.00002 m 24.6,-480.00002 0,480.00002 m 24.6,-480.00002 0,480.00002 m 24.6,-480.00002 0,480.00002 m 24.6,-480.00002 0,480.00002 m 24.6,-480.00002 0,480.00002 m 24.6,-480.00002 0,480.00002 m 24.6,-480.00002 0,480.00002 m 24.6,-480.00002 0,480.00002 m 24.6,-480.00002 0,480.00002 m 24.60001,-480.00002 0,480.00002 m 24.6,-480.00002 0,480.00002 m 24.6,-480.00002 0,480.00002 m 24.6,-480.00002 0,480.00002 m 24.6,-480.00002 0,480.00002 m 24.6,-480.00002 0,480.00002 m 24.6,-480.00002 0,480.00002 m 24.6,-480.00002 0,480.00002 m 24.6,-480.00002 0,480.00002 m 24.6,-480.00002 0,480.00002 m 24.6,-480.00002 0,480.00002 m 24.6,-480.00002 0,480.00002 m 24.6,-480.00002 0,480.00002 M 1.005e-5,572.36218 l 639.99997995,0 m -639.99997995,20 639.99997995,0 m -639.99997995,20 639.99997995,0 m -639.99997995,20 639.99997995,0 m -639.99997995,20 639.99997995,0 m -639.99997995,20 639.99997995,0 M 1.005e-5,692.36217 l 639.99997995,0 m -639.99997995,20 639.99997995,0 m -639.99997995,20 639.99997995,0 m -639.99997995,20 639.99997995,0 m -639.99997995,20 639.99997995,0 m -639.99997995,20 639.99997995,0 m -639.99997995,20 639.99997995,0 m -639.99997995,20 639.99997995,0 m -639.99997995,20 639.99997995,0 m -639.99997995,20 639.99997995,0 m -639.99997995,20 639.99997995,0 m -639.99997995,20 639.99997995,0 m -639.99997995,20 639.99997995,0 m -639.99997995,20 639.99997995,0 m -639.99997995,20 639.99997995,0 m -639.99997995,20 639.99997995,0 M 1.005e-5,1012.3622 l 639.99997995,0 m -639.99997995,20 639.99997995,0 m -639.99997995,20 639.99997995,0"
       style="fill:none;stroke:#1a1a1a;stroke-width:1pt;stroke-linecap:butt;stroke-linejoin:miter;stroke-opacity:1"
       id="path3026"
       inkscape:connector-curvature="0" />
    <path
       style="fill:#0000ff"
       d="M 5 5 L 5 475 L 45 475 L 45 465 L 15 465 L 15 15 L 45 15 L 45 5 L 5 5 z "
       transform="translate(0,572.36218)"
       id="rect2987" />
    <path
       id="path2992"
       d="m 635,577.36221 0,469.99999 -40,0 0,-10 30,0 0,-449.99999 -30,0 0,-10 40,0 z"
       style="fill:#0000ff"
       inkscape:connector-curvature="0" />
  </g>
</svg>
