<?xml version="1.0" encoding="UTF-8" standalone="no"?>
<!-- Created with Inkscape (http://www.inkscape.org/) -->

<svg
   xmlns:dc="http://purl.org/dc/elements/1.1/"
   xmlns:cc="http://creativecommons.org/ns#"
   xmlns:rdf="http://www.w3.org/1999/02/22-rdf-syntax-ns#"
   xmlns:svg="http://www.w3.org/2000/svg"
   xmlns="http://www.w3.org/2000/svg"
   xmlns:sodipodi="http://sodipodi.sourceforge.net/DTD/sodipodi-0.dtd"
   xmlns:inkscape="http://www.inkscape.org/namespaces/inkscape"
   width="120"
   height="640"
   id="svg2"
   version="1.1"
   inkscape:version="0.48.5 r10040"
   sodipodi:docname="torpedoes_v2.svg"
   inkscape:export-filename="/home/aebates/code/rpispacepirates/assets/textures/starship/torp2-06.png"
   inkscape:export-xdpi="90"
   inkscape:export-ydpi="90">
  <defs
     id="defs4">
    <linearGradient
       id="linearGradient3777">
      <stop
         style="stop-color:#ffffff;stop-opacity:1;"
         offset="0"
         id="stop3779" />
      <stop
         style="stop-color:#ffffff;stop-opacity:0;"
         offset="1"
         id="stop3781" />
    </linearGradient>
    <linearGradient
       id="linearGradient3769">
      <stop
         style="stop-color:#b3b3b3;stop-opacity:1;"
         offset="0"
         id="stop3771" />
      <stop
         style="stop-color:#b3b3b3;stop-opacity:0;"
         offset="1"
         id="stop3773" />
    </linearGradient>
    <filter
       inkscape:collect="always"
       id="filter3980"
       x="-0.30974784"
       width="1.6194957"
       y="-0.075921108"
       height="1.1518422">
      <feGaussianBlur
         inkscape:collect="always"
         stdDeviation="3.3593319"
         id="feGaussianBlur3982" />
    </filter>
  </defs>
  <sodipodi:namedview
     id="base"
     pagecolor="#ffffff"
     bordercolor="#666666"
     borderopacity="1.0"
     inkscape:pageopacity="0.0"
     inkscape:pageshadow="2"
     inkscape:zoom="2.8487309"
     inkscape:cx="99.41717"
     inkscape:cy="79.927342"
     inkscape:document-units="px"
     inkscape:current-layer="g4010"
     showgrid="false"
     showguides="true"
     inkscape:guide-bbox="true"
     inkscape:window-width="1680"
     inkscape:window-height="1002"
     inkscape:window-x="0"
     inkscape:window-y="26"
     inkscape:window-maximized="1">
    <sodipodi:guide
       orientation="0,1"
       position="-63.064834,106.36308"
       id="guide3785" />
    <sodipodi:guide
       orientation="0,1"
       position="-54.593439,212.72616"
       id="guide3787" />
    <sodipodi:guide
       orientation="0,1"
       position="-59.29977,318.14797"
       id="guide3789" />
    <sodipodi:guide
       orientation="0,1"
       position="-120.48207,424.51105"
       id="guide3793" />
    <sodipodi:guide
       orientation="0,1"
       position="-108.24561,530.87413"
       id="guide3795" />
    <sodipodi:guide
       orientation="0,1"
       position="72.663936,639.93408"
       id="guide4061" />
  </sodipodi:namedview>
  <metadata
     id="metadata7">
    <rdf:RDF>
      <cc:Work
         rdf:about="">
        <dc:format>image/svg+xml</dc:format>
        <dc:type
           rdf:resource="http://purl.org/dc/dcmitype/StillImage" />
        <dc:title></dc:title>
      </cc:Work>
    </rdf:RDF>
  </metadata>
  <g
     style="display:inline"
     transform="translate(0,-412.36218)"
     id="g3958"
     inkscape:groupmode="layer"
     inkscape:label="00">
    <path
       style="fill:#0000ff;fill-opacity:1;stroke:#000000;stroke-width:0.32752188999999998;stroke-opacity:1;filter:url(#filter3980)"
       d="m 59.994729,1019.4512 c -7.186435,0 -13.009181,8.748 -13.009181,19.5357 0,1.1921 0.07458,2.3546 0.210845,3.4878 l -0.0738,0 6.441337,41.5854 6.441337,41.5855 6.441338,-41.5855 6.441337,-41.5854 -0.09488,0 c 0.136262,-1.1332 0.221389,-2.2957 0.221389,-3.4878 0,-10.7877 -5.833289,-19.5357 -13.019723,-19.5357 z"
       id="path3966"
       inkscape:connector-curvature="0" />
    <path
       sodipodi:type="arc"
       style="fill:#fffffd;fill-opacity:1;stroke:none"
       id="path3984"
       sodipodi:cx="60.99894"
       sodipodi:cy="626.70264"
       sodipodi:rx="8.3724041"
       sodipodi:ry="13.719485"
       d="m 69.371344,626.70264 a 8.3724041,13.719485 0 1 1 -16.744809,0 8.3724041,13.719485 0 1 1 16.744809,0 z"
       transform="matrix(1.3361343,0,0,1,-21.502775,410.81434)" />
  </g>
  <g
     inkscape:label="01"
     inkscape:groupmode="layer"
     id="g3986"
     transform="translate(0,-412.36218)"
     style="display:inline">
    <path
       inkscape:connector-curvature="0"
       id="path3988"
       d="m 59.994729,945.9991 c -7.186435,0 -13.009181,8.748 -13.009181,19.5357 0,1.1921 0.07458,2.3546 0.210845,3.4878 l -0.0738,0 6.441337,41.5854 6.441337,41.5855 6.441338,-41.5855 6.441337,-41.5854 -0.09488,0 c 0.136262,-1.1332 0.221389,-2.2957 0.221389,-3.4878 0,-10.7877 -5.833289,-19.5357 -13.019723,-19.5357 z"
       style="fill:#0000ff;fill-opacity:1;stroke:#000000;stroke-width:0.32752188999999998;stroke-opacity:1;filter:url(#filter3980)" />
    <path
       transform="matrix(1.3361343,0,0,1,-21.502775,337.36224)"
       d="m 69.371344,626.70264 a 8.3724041,13.719485 0 1 1 -16.744809,0 8.3724041,13.719485 0 1 1 16.744809,0 z"
       sodipodi:ry="13.719485"
       sodipodi:rx="8.3724041"
       sodipodi:cy="626.70264"
       sodipodi:cx="60.99894"
       id="path3990"
       style="fill:#fffffd;fill-opacity:1;stroke:none"
       sodipodi:type="arc" />
  </g>
  <g
     style="display:inline"
     transform="translate(0,-412.36218)"
     id="g3992"
     inkscape:groupmode="layer"
     inkscape:label="02">
    <path
       style="fill:#0000ff;fill-opacity:1;stroke:#000000;stroke-width:0.32752188999999998;stroke-opacity:1;filter:url(#filter3980)"
       d="m 59.994729,835.28973 c -7.186435,0 -13.009181,8.748 -13.009181,19.5357 0,1.1921 0.07458,2.3546 0.210845,3.4878 l -0.0738,0 6.441337,41.5854 6.441337,41.5855 6.441338,-41.5855 6.441337,-41.5854 -0.09488,0 c 0.136262,-1.1332 0.221389,-2.2957 0.221389,-3.4878 0,-10.7877 -5.833289,-19.5357 -13.019723,-19.5357 z"
       id="path3994"
       inkscape:connector-curvature="0" />
    <path
       sodipodi:type="arc"
       style="fill:#fffffd;fill-opacity:1;stroke:none"
       id="path3996"
       sodipodi:cx="60.99894"
       sodipodi:cy="626.70264"
       sodipodi:rx="8.3724041"
       sodipodi:ry="13.719485"
       d="m 69.371344,626.70264 a 8.3724041,13.719485 0 1 1 -16.744809,0 8.3724041,13.719485 0 1 1 16.744809,0 z"
       transform="matrix(1.3361343,0,0,1,-21.502775,226.65287)" />
  </g>
  <g
     inkscape:label="03"
     inkscape:groupmode="layer"
     id="g3998"
     transform="translate(0,-412.36218)"
     style="display:inline">
    <path
       inkscape:connector-curvature="0"
       id="path4000"
       d="m 59.994729,734.21421 c -7.186435,0 -13.009181,8.748 -13.009181,19.5357 0,1.1921 0.07458,2.3546 0.210845,3.4878 l -0.0738,0 6.441337,41.5854 6.441337,41.5855 6.441338,-41.5855 6.441337,-41.5854 -0.09488,0 c 0.136262,-1.1332 0.221389,-2.2957 0.221389,-3.4878 0,-10.7877 -5.833289,-19.5357 -13.019723,-19.5357 z"
       style="fill:#0000ff;fill-opacity:1;stroke:#000000;stroke-width:0.32752188999999998;stroke-opacity:1;filter:url(#filter3980)" />
    <path
       transform="matrix(1.3361343,0,0,1,-21.502774,125.57735)"
       d="m 69.371344,626.70264 a 8.3724041,13.719485 0 1 1 -16.744809,0 8.3724041,13.719485 0 1 1 16.744809,0 z"
       sodipodi:ry="13.719485"
       sodipodi:rx="8.3724041"
       sodipodi:cy="626.70264"
       sodipodi:cx="60.99894"
       id="path4002"
       style="fill:#fffffd;fill-opacity:1;stroke:none"
       sodipodi:type="arc" />
  </g>
  <g
     style="display:inline"
     transform="translate(0,-412.36218)"
     id="g4004"
     inkscape:groupmode="layer"
     inkscape:label="04">
    <path
       style="fill:#0000ff;fill-opacity:1;stroke:#000000;stroke-width:0.32752188999999998;stroke-opacity:1;filter:url(#filter3980)"
       d="m 59.994729,627.85113 c -7.186435,0 -13.009181,8.748 -13.009181,19.5357 0,1.1921 0.07458,2.3546 0.210845,3.4878 l -0.0738,0 6.441337,41.5854 6.441337,41.5855 6.441338,-41.5855 6.441337,-41.5854 -0.09488,0 c 0.136262,-1.1332 0.221389,-2.2957 0.221389,-3.4878 0,-10.7877 -5.833289,-19.5357 -13.019723,-19.5357 z"
       id="path4006"
       inkscape:connector-curvature="0" />
    <path
       sodipodi:type="arc"
       style="fill:#fffffd;fill-opacity:1;stroke:none"
       id="path4008"
       sodipodi:cx="60.99894"
       sodipodi:cy="626.70264"
       sodipodi:rx="8.3724041"
       sodipodi:ry="13.719485"
       d="m 69.371344,626.70264 a 8.3724041,13.719485 0 1 1 -16.744809,0 8.3724041,13.719485 0 1 1 16.744809,0 z"
       transform="matrix(1.3361343,0,0,1,-21.502775,19.21427)" />
  </g>
  <g
     inkscape:label="05"
     inkscape:groupmode="layer"
     id="g4010"
     transform="translate(0,-412.36218)"
     style="display:inline">
    <path
       inkscape:connector-curvature="0"
       id="path4012"
       d="m 59.994729,521.48805 c -7.186435,0 -13.009181,8.748 -13.009181,19.5357 0,1.1921 0.07458,2.3546 0.210845,3.4878 l -0.0738,0 6.441337,41.5854 6.441337,41.5855 6.441338,-41.5855 6.441337,-41.5854 -0.09488,0 c 0.136262,-1.1332 0.221389,-2.2957 0.221389,-3.4878 0,-10.7877 -5.833289,-19.5357 -13.019723,-19.5357 z"
       style="fill:#0000ff;fill-opacity:1;stroke:#000000;stroke-width:0.32752188999999998;stroke-opacity:1;filter:url(#filter3980)" />
    <path
       transform="matrix(1.3361343,0,0,1,-21.502775,-87.14881)"
       d="m 69.371344,626.70264 a 8.3724041,13.719485 0 1 1 -16.744809,0 8.3724041,13.719485 0 1 1 16.744809,0 z"
       sodipodi:ry="13.719485"
       sodipodi:rx="8.3724041"
       sodipodi:cy="626.70264"
       sodipodi:cx="60.99894"
       id="path4014"
       style="fill:#fffffd;fill-opacity:1;stroke:none"
       sodipodi:type="arc" />
  </g>
  <g
     style="display:inline"
     transform="translate(0,-412.36218)"
     id="g4016"
     inkscape:groupmode="layer"
     inkscape:label="06">
    <path
       style="fill:#0000ff;fill-opacity:1;stroke:#000000;stroke-width:0.32752188999999998;stroke-opacity:1;filter:url(#filter3980)"
       d="m 59.994729,412.4281 c -7.186435,0 -13.009181,8.748 -13.009181,19.5357 0,1.1921 0.07458,2.3546 0.210845,3.4878 l -0.0738,0 6.441337,41.5854 6.441337,41.5855 6.441338,-41.5855 6.441337,-41.5854 -0.09488,0 c 0.136262,-1.1332 0.221389,-2.2957 0.221389,-3.4878 0,-10.7877 -5.833289,-19.5357 -13.019723,-19.5357 z"
       id="path4018"
       inkscape:connector-curvature="0" />
    <path
       sodipodi:type="arc"
       style="fill:#fffffd;fill-opacity:1;stroke:none"
       id="path4020"
       sodipodi:cx="60.99894"
       sodipodi:cy="626.70264"
       sodipodi:rx="8.3724041"
       sodipodi:ry="13.719485"
       d="m 69.371344,626.70264 a 8.3724041,13.719485 0 1 1 -16.744809,0 8.3724041,13.719485 0 1 1 16.744809,0 z"
       transform="matrix(1.3361343,0,0,1,-21.502775,-196.20876)" />
  </g>
</svg>
