<?xml version="1.0" encoding="UTF-8" standalone="no"?>
<!-- Created with Inkscape (http://www.inkscape.org/) -->

<svg
   xmlns:dc="http://purl.org/dc/elements/1.1/"
   xmlns:cc="http://creativecommons.org/ns#"
   xmlns:rdf="http://www.w3.org/1999/02/22-rdf-syntax-ns#"
   xmlns:svg="http://www.w3.org/2000/svg"
   xmlns="http://www.w3.org/2000/svg"
   xmlns:xlink="http://www.w3.org/1999/xlink"
   xmlns:sodipodi="http://sodipodi.sourceforge.net/DTD/sodipodi-0.dtd"
   xmlns:inkscape="http://www.inkscape.org/namespaces/inkscape"
   width="120"
   height="640"
   id="svg2"
   version="1.1"
   inkscape:version="0.48.5 r10040"
   sodipodi:docname="New document 1">
  <defs
     id="defs4">
    <linearGradient
       id="linearGradient3777">
      <stop
         style="stop-color:#ffffff;stop-opacity:1;"
         offset="0"
         id="stop3779" />
      <stop
         style="stop-color:#ffffff;stop-opacity:0;"
         offset="1"
         id="stop3781" />
    </linearGradient>
    <linearGradient
       id="linearGradient3769">
      <stop
         style="stop-color:#b3b3b3;stop-opacity:1;"
         offset="0"
         id="stop3771" />
      <stop
         style="stop-color:#b3b3b3;stop-opacity:0;"
         offset="1"
         id="stop3773" />
    </linearGradient>
    <radialGradient
       inkscape:collect="always"
       xlink:href="#linearGradient3769"
       id="radialGradient3825"
       gradientUnits="userSpaceOnUse"
       gradientTransform="matrix(-0.59877332,9.8065353e-4,-0.00419586,-2.2760745,-290.39966,1169.366)"
       cx="-585.03235"
       cy="89.90477"
       fx="-585.03235"
       fy="89.90477"
       r="39.078125" />
    <linearGradient
       inkscape:collect="always"
       xlink:href="#linearGradient3777"
       id="linearGradient3827"
       gradientUnits="userSpaceOnUse"
       gradientTransform="matrix(0.33735316,0,0,0.31797711,256.1445,962.35502)"
       x1="-583.17468"
       y1="-50.656364"
       x2="-581.7818"
       y2="23.994246" />
    <radialGradient
       inkscape:collect="always"
       xlink:href="#linearGradient3769"
       id="radialGradient3859"
       gradientUnits="userSpaceOnUse"
       gradientTransform="matrix(-0.59877332,9.8065353e-4,-0.00419586,-2.2760745,-290.39965,635.89711)"
       cx="-585.03235"
       cy="89.90477"
       fx="-585.03235"
       fy="89.90477"
       r="39.078125" />
    <linearGradient
       inkscape:collect="always"
       xlink:href="#linearGradient3777"
       id="linearGradient3861"
       gradientUnits="userSpaceOnUse"
       gradientTransform="matrix(0.33735316,0,0,0.31797711,256.14451,428.88615)"
       x1="-583.17468"
       y1="-50.656364"
       x2="-581.7818"
       y2="23.994246" />
    <radialGradient
       inkscape:collect="always"
       xlink:href="#linearGradient3769"
       id="radialGradient3865"
       gradientUnits="userSpaceOnUse"
       gradientTransform="matrix(-0.59877332,9.8065353e-4,-0.00419586,-2.2760745,-290.39966,1063.0029)"
       cx="-585.03235"
       cy="89.90477"
       fx="-585.03235"
       fy="89.90477"
       r="39.078125" />
    <linearGradient
       inkscape:collect="always"
       xlink:href="#linearGradient3777"
       id="linearGradient3867"
       gradientUnits="userSpaceOnUse"
       gradientTransform="matrix(0.33735316,0,0,0.31797711,256.1445,855.99194)"
       x1="-583.17468"
       y1="-50.656364"
       x2="-581.7818"
       y2="23.994246" />
    <radialGradient
       inkscape:collect="always"
       xlink:href="#linearGradient3769"
       id="radialGradient3869"
       gradientUnits="userSpaceOnUse"
       gradientTransform="matrix(-0.59877332,9.8065353e-4,-0.00419586,-2.2760745,-290.39966,957.58111)"
       cx="-585.03235"
       cy="89.90477"
       fx="-585.03235"
       fy="89.90477"
       r="39.078125" />
    <linearGradient
       inkscape:collect="always"
       xlink:href="#linearGradient3777"
       id="linearGradient3871"
       gradientUnits="userSpaceOnUse"
       gradientTransform="matrix(0.33735316,0,0,0.31797711,256.1445,750.57013)"
       x1="-583.17468"
       y1="-50.656364"
       x2="-581.7818"
       y2="23.994246" />
    <radialGradient
       inkscape:collect="always"
       xlink:href="#linearGradient3769"
       id="radialGradient3873"
       gradientUnits="userSpaceOnUse"
       gradientTransform="matrix(-0.59877332,9.8065353e-4,-0.00419586,-2.2760745,-290.39965,851.21803)"
       cx="-585.03235"
       cy="89.90477"
       fx="-585.03235"
       fy="89.90477"
       r="39.078125" />
    <linearGradient
       inkscape:collect="always"
       xlink:href="#linearGradient3777"
       id="linearGradient3875"
       gradientUnits="userSpaceOnUse"
       gradientTransform="matrix(0.33735316,0,0,0.31797711,256.1445,644.20705)"
       x1="-583.17468"
       y1="-50.656364"
       x2="-581.7818"
       y2="23.994246" />
    <radialGradient
       inkscape:collect="always"
       xlink:href="#linearGradient3769"
       id="radialGradient3877"
       gradientUnits="userSpaceOnUse"
       gradientTransform="matrix(-0.59877332,9.8065353e-4,-0.00419586,-2.2760745,-290.39965,744.85495)"
       cx="-585.03235"
       cy="89.90477"
       fx="-585.03235"
       fy="89.90477"
       r="39.078125" />
    <linearGradient
       inkscape:collect="always"
       xlink:href="#linearGradient3777"
       id="linearGradient3879"
       gradientUnits="userSpaceOnUse"
       gradientTransform="matrix(0.33735316,0,0,0.31797711,256.1445,537.84397)"
       x1="-583.17468"
       y1="-50.656364"
       x2="-581.7818"
       y2="23.994246" />
  </defs>
  <sodipodi:namedview
     id="base"
     pagecolor="#ffffff"
     bordercolor="#666666"
     borderopacity="1.0"
     inkscape:pageopacity="0.0"
     inkscape:pageshadow="2"
     inkscape:zoom="0.38120127"
     inkscape:cx="88.284277"
     inkscape:cy="625.83743"
     inkscape:document-units="px"
     inkscape:current-layer="layer1"
     showgrid="false"
     showguides="true"
     inkscape:guide-bbox="true"
     inkscape:window-width="1680"
     inkscape:window-height="1002"
     inkscape:window-x="0"
     inkscape:window-y="26"
     inkscape:window-maximized="1">
    <sodipodi:guide
       orientation="0,1"
       position="-63.064834,106.36308"
       id="guide3785" />
    <sodipodi:guide
       orientation="0,1"
       position="-54.593439,212.72616"
       id="guide3787" />
    <sodipodi:guide
       orientation="0,1"
       position="-59.29977,318.14797"
       id="guide3789" />
    <sodipodi:guide
       orientation="0,1"
       position="-120.48207,424.51105"
       id="guide3793" />
    <sodipodi:guide
       orientation="0,1"
       position="-108.24561,530.87413"
       id="guide3795" />
    <sodipodi:guide
       orientation="1,0"
       position="60.00061,643.65777"
       id="guide3863" />
  </sodipodi:namedview>
  <metadata
     id="metadata7">
    <rdf:RDF>
      <cc:Work
         rdf:about="">
        <dc:format>image/svg+xml</dc:format>
        <dc:type
           rdf:resource="http://purl.org/dc/dcmitype/StillImage" />
        <dc:title></dc:title>
      </cc:Work>
    </rdf:RDF>
  </metadata>
  <g
     inkscape:label="Layer 1"
     inkscape:groupmode="layer"
     id="layer1"
     transform="translate(0,-412.36218)"
     style="display:inline">
    <path
       style="fill:url(#radialGradient3825);fill-opacity:1;stroke:url(#linearGradient3827);stroke-width:0.32752189"
       d="m 59.99473,945.9991 c -7.186435,0 -13.009181,8.74801 -13.009181,19.53572 0,1.19211 0.07458,2.35462 0.210845,3.4878 l -0.0738,0 6.441337,41.58538 6.441337,41.5855 6.441338,-41.5855 6.441337,-41.58538 -0.09488,0 c 0.136262,-1.13318 0.221389,-2.29569 0.221389,-3.4878 0,-10.78771 -5.833289,-19.53572 -13.019723,-19.53572 z"
       id="path2996"
       inkscape:connector-curvature="0" />
  </g>
  <g
     transform="translate(0,-412.36218)"
     id="g3829"
     inkscape:groupmode="layer"
     inkscape:label="2"
     style="display:inline">
    <path
       inkscape:connector-curvature="0"
       id="path3833"
       d="m 59.99473,839.63602 c -7.186435,0 -13.009181,8.74801 -13.009181,19.53572 0,1.19211 0.07458,2.35462 0.210845,3.4878 l -0.0738,0 6.441337,41.58538 6.441337,41.5855 6.441337,-41.5855 6.441337,-41.58538 -0.09488,0 c 0.136261,-1.13318 0.221388,-2.29569 0.221388,-3.4878 0,-10.78771 -5.833288,-19.53572 -13.019723,-19.53572 z"
       style="fill:url(#radialGradient3865);fill-opacity:1;stroke:url(#linearGradient3867);stroke-width:0.32752189" />
  </g>
  <g
     inkscape:label="3"
     inkscape:groupmode="layer"
     id="g3835"
     transform="translate(0,-412.36218)"
     style="display:inline">
    <path
       style="fill:url(#radialGradient3869);fill-opacity:1;stroke:url(#linearGradient3871);stroke-width:0.32752189"
       d="m 59.99473,734.21421 c -7.186435,0 -13.009181,8.74801 -13.009181,19.53572 0,1.19211 0.07458,2.35462 0.210845,3.4878 l -0.0738,0 6.441337,41.58538 6.441337,41.5855 6.441337,-41.5855 6.441337,-41.58538 -0.09488,0 c 0.136261,-1.13318 0.221388,-2.29569 0.221388,-3.4878 0,-10.78771 -5.833288,-19.53572 -13.019723,-19.53572 z"
       id="path3839"
       inkscape:connector-curvature="0" />
  </g>
  <g
     transform="translate(0,-412.36218)"
     id="g3841"
     inkscape:groupmode="layer"
     inkscape:label="4"
     style="display:inline">
    <path
       inkscape:connector-curvature="0"
       id="path3845"
       d="m 59.99473,627.85113 c -7.186435,0 -13.009181,8.74801 -13.009181,19.53572 0,1.19211 0.07458,2.35462 0.210845,3.4878 l -0.0738,0 6.441337,41.58538 6.441337,41.5855 6.441338,-41.5855 6.441337,-41.58538 -0.09488,0 c 0.136262,-1.13318 0.221389,-2.29569 0.221389,-3.4878 0,-10.78771 -5.833289,-19.53572 -13.019723,-19.53572 z"
       style="fill:url(#radialGradient3873);fill-opacity:1;stroke:url(#linearGradient3875);stroke-width:0.32752189" />
  </g>
  <g
     inkscape:label="5"
     inkscape:groupmode="layer"
     id="g3847"
     transform="translate(0,-412.36218)"
     style="display:inline">
    <path
       style="fill:url(#radialGradient3877);fill-opacity:1;stroke:url(#linearGradient3879);stroke-width:0.32752189"
       d="m 59.99473,521.48805 c -7.186435,0 -13.009181,8.74801 -13.009181,19.53572 0,1.19211 0.07458,2.35462 0.210845,3.4878 l -0.0738,0 6.441337,41.58538 6.441337,41.5855 6.441338,-41.5855 6.441337,-41.58538 -0.09488,0 c 0.136262,-1.13318 0.221389,-2.29569 0.221389,-3.4878 0,-10.78771 -5.833289,-19.53572 -13.019723,-19.53572 z"
       id="path3851"
       inkscape:connector-curvature="0" />
  </g>
  <g
     transform="translate(0,-412.36218)"
     id="g3853"
     inkscape:groupmode="layer"
     inkscape:label="6"
     style="display:inline">
    <path
       inkscape:connector-curvature="0"
       id="path3857"
       d="m 59.99473,412.53023 c -7.186435,0 -13.009181,8.74801 -13.009181,19.53572 0,1.19211 0.07458,2.35462 0.210845,3.4878 l -0.0738,0 6.441337,41.58538 6.441337,41.5855 6.441338,-41.5855 6.441337,-41.58538 -0.09488,0 c 0.136262,-1.13318 0.221389,-2.29569 0.221389,-3.4878 0,-10.78771 -5.833289,-19.53572 -13.019723,-19.53572 z"
       style="fill:url(#radialGradient3859);fill-opacity:1;stroke:url(#linearGradient3861);stroke-width:0.32752189" />
  </g>
</svg>
